<?xml version="1.0" encoding="iso-8859-1"?>
<!-- Generator: Adobe Illustrator 19.0.0, SVG Export Plug-In . SVG Version: 6.00 Build 0)  -->
<svg version="1.1" id="Layer_1" xmlns="http://www.w3.org/2000/svg" xmlns:xlink="http://www.w3.org/1999/xlink" x="0px" y="0px"
	 viewBox="0 0 512 512" style="enable-background:new 0 0 512 512;" xml:space="preserve">
<path style="fill:#DBE9FD;" d="M508.653,115.999c-4.086-10.832-11.793-19.774-21.674-25.543c-7.402-4.322-15.893-6.978-25.066-6.978
	H50.087c-9.173,0-17.664,2.656-25.066,6.979C15.14,96.226,7.433,105.168,3.347,116C1.277,121.485,0,127.362,0,133.565v244.87
	c0,19.416,12.306,39.113,32.521,46.74c5.486,2.07,11.363,3.347,17.566,3.347h411.826c6.203,0,12.08-1.277,17.566-3.347
	C499.66,417.562,512,397.88,512,378.435v-244.87C512,127.362,510.723,121.485,508.653,115.999z"/>
<g>
	<path style="fill:#C5DCFD;" d="M486.979,90.457c-7.402-4.323-15.893-6.979-25.066-6.979H256v345.043h205.913
		c6.203,0,12.08-1.277,17.566-3.347C499.661,417.562,512,397.88,512,378.435v-244.87c0-6.203-1.277-12.08-3.347-17.566
		C504.567,105.167,496.86,96.226,486.979,90.457z"/>
	<path style="fill:#C5DCFD;" d="M25.021,90.457C15.14,96.226,7.433,105.168,3.347,116C1.277,121.485,0,127.362,0,133.565v244.87
		c0,19.416,12.306,39.113,32.521,46.74c35.459-35.459,127.104-127.104,163.61-163.61C107.243,172.678,272.083,337.518,25.021,90.457
		z"/>
</g>
<path style="fill:#B1C6E4;" d="M508.653,115.999c-4.086-10.832-11.793-19.774-21.674-25.543
	C331.036,246.399,372.513,204.921,315.869,261.565c36.765,36.765,128.205,128.205,163.61,163.61
	C499.66,417.562,512,397.88,512,378.435v-244.87C512,127.362,510.723,121.485,508.653,115.999z"/>
<path style="fill:#6BBAE2;" d="M486.979,90.457c-7.402-4.323-15.893-6.979-25.066-6.979H50.087c-9.173,0-17.664,2.656-25.066,6.979
	C15.14,96.226,7.433,105.168,3.347,116c44.403,44.402,172.814,172.813,217.24,217.239c19.512,19.512,51.265,19.561,70.826,0
	C361.385,263.268,412.835,211.819,508.653,116C504.567,105.167,496.86,96.226,486.979,90.457z"/>
<path style="fill:#60AED5;" d="M486.979,90.457c-7.402-4.323-15.893-6.979-25.066-6.979H256V347.89
	c12.817,0.001,25.637-4.874,35.413-14.65C361.383,263.268,412.833,211.819,508.652,116
	C504.567,105.167,496.86,96.226,486.979,90.457z"/>
<g>
</g>
<g>
</g>
<g>
</g>
<g>
</g>
<g>
</g>
<g>
</g>
<g>
</g>
<g>
</g>
<g>
</g>
<g>
</g>
<g>
</g>
<g>
</g>
<g>
</g>
<g>
</g>
<g>
</g>
</svg>
