<?xml version="1.0" encoding="iso-8859-1"?>
<!-- Generator: Adobe Illustrator 19.0.0, SVG Export Plug-In . SVG Version: 6.00 Build 0)  -->
<svg version="1.1" id="Layer_1" xmlns="http://www.w3.org/2000/svg" xmlns:xlink="http://www.w3.org/1999/xlink" x="0px" y="0px"
	 viewBox="0 0 512 512" style="enable-background:new 0 0 512 512;" xml:space="preserve">
<polygon style="fill:#B9B9B9;" points="512,405.099 512,512 478.242,512 444.484,458.549 478.242,405.099 "/>
<rect y="405.099" style="fill:#DCDCDC;" width="478.242" height="106.901"/>
<g>
	<circle style="fill:#737373;" cx="74.08" cy="458.549" r="16.879"/>
	<circle style="fill:#737373;" cx="165.044" cy="458.549" r="16.879"/>
	<circle style="fill:#737373;" cx="256" cy="458.549" r="16.879"/>
	<circle style="fill:#737373;" cx="346.956" cy="458.549" r="16.879"/>
	<circle style="fill:#737373;" cx="437.923" cy="458.549" r="16.879"/>
</g>
<path style="fill:#42C8C6;" d="M257.53,208.187l116.623,151.901h33.758C407.912,276.705,340.733,209.009,257.53,208.187z"/>
<path style="fill:#FEA680;" d="M256,0v174.418c48.162,0,87.209-39.047,87.209-87.209S304.162,0,256,0z"/>
<path style="fill:#81E3E2;" d="M257.53,208.187c64.546,1.058,116.623,68.653,116.623,151.901H104.088
	c0-83.9,68.012-151.912,151.912-151.912C256.506,208.176,257.024,208.176,257.53,208.187z"/>
<path style="fill:#FFC1A6;" d="M256,0c29.516,0,53.451,39.047,53.451,87.209S285.516,174.418,256,174.418
	c-48.162,0-87.209-39.047-87.209-87.209S207.838,0,256,0z"/>
<path style="fill:#FE834D;" d="M256,120.806c-11.057,0-21.013-6.719-24.777-16.719c-1.642-4.362,0.563-9.23,4.925-10.871
	c4.364-1.641,9.229,0.565,10.871,4.926c1.303,3.46,4.912,5.786,8.981,5.786c4.069,0,7.678-2.325,8.981-5.786
	c1.642-4.363,6.509-6.567,10.871-4.926c4.362,1.642,6.567,6.51,4.925,10.871C277.013,114.088,267.057,120.806,256,120.806z"/>
<g>
</g>
<g>
</g>
<g>
</g>
<g>
</g>
<g>
</g>
<g>
</g>
<g>
</g>
<g>
</g>
<g>
</g>
<g>
</g>
<g>
</g>
<g>
</g>
<g>
</g>
<g>
</g>
<g>
</g>
</svg>
