<?xml version="1.0" encoding="iso-8859-1"?>
<!-- Generator: Adobe Illustrator 19.0.0, SVG Export Plug-In . SVG Version: 6.00 Build 0)  -->
<svg version="1.1" id="Layer_1" xmlns="http://www.w3.org/2000/svg" xmlns:xlink="http://www.w3.org/1999/xlink" x="0px" y="0px"
	 viewBox="0 0 512 512" style="enable-background:new 0 0 512 512;" xml:space="preserve">
<g>
	<g>
		<path d="M509.607,78.648L433.351,2.392C431.82,0.861,429.741,0,427.574,0H40.851C18.325,0,0,18.325,0,40.851v430.298
			C0,493.675,18.325,512,40.851,512h430.298C493.675,512,512,493.675,512,471.149V84.426C512,82.259,511.139,80.181,509.607,78.648z
			 M125.277,16.34h261.447v163.404H125.277V16.34z M495.66,471.149c0,13.515-10.995,24.511-24.511,24.511H40.851
			c-13.516,0-24.511-10.996-24.511-24.511V40.851c0-13.515,10.995-24.511,24.511-24.511h68.085v171.574
			c0,4.513,3.658,8.17,8.17,8.17h277.787c4.512,0,8.17-3.657,8.17-8.17V16.34h21.127l71.469,71.469V471.149z"/>
	</g>
</g>
<g>
	<g>
		<path d="M362.213,32.681h-65.362c-4.512,0-8.17,3.657-8.17,8.17v114.383c0,4.513,3.658,8.17,8.17,8.17h65.362
			c4.512,0,8.17-3.657,8.17-8.17V40.851C370.383,36.338,366.725,32.681,362.213,32.681z M354.043,147.064h-49.021V49.021h49.021
			V147.064z"/>
	</g>
</g>
<g>
	<g>
		<path d="M394.894,245.106H117.106c-22.526,0-40.851,18.325-40.851,40.851v185.191c0,4.513,3.658,8.17,8.17,8.17
			s8.17-3.657,8.17-8.17V337.702h57.191c4.512,0,8.17-3.657,8.17-8.17s-3.658-8.17-8.17-8.17H92.596v-35.404
			c0-13.515,10.995-24.511,24.511-24.511h277.787c13.516,0,24.511,10.996,24.511,24.511v35.404H182.468
			c-4.512,0-8.17,3.657-8.17,8.17s3.658,8.17,8.17,8.17h236.936v133.447c0,4.513,3.658,8.17,8.17,8.17s8.17-3.657,8.17-8.17V285.957
			C435.745,263.432,417.419,245.106,394.894,245.106z"/>
	</g>
</g>
<g>
	<g>
		<path d="M340.426,386.723H171.574c-4.512,0-8.17,3.657-8.17,8.17s3.658,8.17,8.17,8.17h168.851c4.512,0,8.17-3.657,8.17-8.17
			S344.938,386.723,340.426,386.723z"/>
	</g>
</g>
<g>
	<g>
		<path d="M284.141,430.298H171.574c-4.512,0-8.17,3.657-8.17,8.17s3.658,8.17,8.17,8.17h112.567c4.512,0,8.17-3.657,8.17-8.17
			S288.655,430.298,284.141,430.298z"/>
	</g>
</g>
<g>
</g>
<g>
</g>
<g>
</g>
<g>
</g>
<g>
</g>
<g>
</g>
<g>
</g>
<g>
</g>
<g>
</g>
<g>
</g>
<g>
</g>
<g>
</g>
<g>
</g>
<g>
</g>
<g>
</g>
</svg>
